<?xml version="1.0" encoding="UTF-8"?>
<svg width="200" height="200" viewBox="0 0 200 200" xmlns="http://www.w3.org/2000/svg">
    <!-- Carnation Petals -->
    <g transform="translate(100,100)">
        <!-- Center Petals -->
        <path d="M0,0 C-20,-20 -20,-40 0,-40 C20,-40 20,-20 0,0" fill="#ff69b4" opacity="0.8"/>
        <path d="M0,0 C20,-20 40,-20 40,0 C40,20 20,20 0,0" fill="#ff69b4" opacity="0.8"/>
        <path d="M0,0 C20,20 20,40 0,40 C-20,40 -20,20 0,0" fill="#ff69b4" opacity="0.8"/>
        <path d="M0,0 C-20,20 -40,20 -40,0 C-40,-20 -20,-20 0,0" fill="#ff69b4" opacity="0.8"/>
        
        <!-- Outer Petals -->
        <path d="M0,-20 C-30,-30 -40,-50 -20,-60 C0,-70 20,-50 0,-20" fill="#ff1493" opacity="0.6"/>
        <path d="M20,0 C30,-30 50,-40 60,-20 C70,0 50,20 20,0" fill="#ff1493" opacity="0.6"/>
        <path d="M0,20 C30,30 40,50 20,60 C0,70 -20,50 0,20" fill="#ff1493" opacity="0.6"/>
        <path d="M-20,0 C-30,30 -50,40 -60,20 C-70,0 -50,-20 -20,0" fill="#ff1493" opacity="0.6"/>
        
        <!-- Center -->
        <circle cx="0" cy="0" r="10" fill="#ff69b4" opacity="0.9"/>
    </g>
</svg> 